<svg xmlns="http://www.w3.org/2000/svg" width="64" height="64" viewBox="0 0 64 64" fill="none">
  <rect width="64" height="64" rx="14" fill="#020617"/>
  <rect x="7" y="7" width="50" height="50" rx="11" fill="#0f172a" stroke="#1e293b" stroke-width="2"/>
  <path d="M16 24v-6a2 2 0 0 1 2-2h6" stroke="#67e8f9" stroke-width="4" stroke-linecap="round" stroke-linejoin="round"/>
  <path d="M40 16h6a2 2 0 0 1 2 2v6" stroke="#67e8f9" stroke-width="4" stroke-linecap="round" stroke-linejoin="round"/>
  <path d="M48 40v6a2 2 0 0 1-2 2h-6" stroke="#67e8f9" stroke-width="4" stroke-linecap="round" stroke-linejoin="round"/>
  <path d="M24 48h-6a2 2 0 0 1-2-2v-6" stroke="#67e8f9" stroke-width="4" stroke-linecap="round" stroke-linejoin="round"/>
  <path d="M23 37s3.5 5 9 5 9-5 9-5" stroke="#67e8f9" stroke-width="4" stroke-linecap="round" stroke-linejoin="round"/>
  <path d="M25 27h.01" stroke="#67e8f9" stroke-width="5" stroke-linecap="round"/>
  <path d="M39 27h.01" stroke="#67e8f9" stroke-width="5" stroke-linecap="round"/>
</svg>
